<?xml version="1.0" encoding="UTF-8"?>
<svg id="Camada_1" data-name="Camada 1" xmlns="http://www.w3.org/2000/svg" viewBox="0 0 1080 1080">
  <defs>
    <style>
      .cls-1 {
        fill: #f9f9f9;
      }
    </style>
  </defs>
  <g id="Escuro">
    <g id="Interno">
      <path class="cls-1" d="m407,518.68c-30.59,5.84-61.42-13.68-69.72-44.26-1.24-4.6-1.83-9.38-2.73-14.08v-5c.79-4.2,1.36-8.45,2.4-12.58,7.14-28.39,34.58-48.15,63.64-45.93,30,2.28,53.73,25.11,56.77,54.62,3.31,32.66-17.96,61.05-50.36,67.23Z"/>
      <path class="cls-1" d="m407,682.69c-33.91,5.25-64.18-15.67-70.91-49-.58-2.89-1-5.8-1.55-8.7v-5c2.54-8.84,3.9-18.27,7.86-26.43,11.49-23.68,39.05-36.8,64.59-31.91,27.52,5.29,47.61,26.77,50.34,53.84,3.24,32.69-18.96,62.33-50.33,67.2Z"/>
      <path class="cls-1" d="m600.64,383.48c-4.08,29.75-30,52.12-60.48,52.14-33,0-59.54-24.71-61.64-57.48-2.06-32.23,21.14-60.08,53.75-64.56.94-.22,1.86-.52,2.74-.91h9c4.51,1,9.1,1.73,13.51,3,29.22,8.66,47.31,37.17,43.12,67.81Z"/>
      <path class="cls-1" d="m744.67,458.05c.43,33.89-26.69,61.72-60.58,62.15s-61.72-26.69-62.15-60.58c0-.52,0-1.05,0-1.57.12-33.76,27.4-61.14,61.16-61.38,33.78-.25,61.39,27.33,61.57,61.38Z"/>
      <path class="cls-1" d="m744.67,622.06c.07,34-27.53,61.7-61.34,61.64-33.99-.09-61.48-27.71-61.39-61.71,0-.14,0-.29,0-.43.12-33.65,27.63-60.72,61.65-60.66,33.69-.04,61.04,27.23,61.08,60.92,0,.08,0,.16,0,.24Z"/>
      <path class="cls-1" d="m601.07,705.91c.36,33.85-26.79,61.58-60.63,61.94-33.85.36-61.58-26.79-61.94-60.63,0-.52,0-1.03,0-1.55,0-34.08,27.27-61,61.72-60.95,34,.03,60.84,27.02,60.85,61.19Z"/>
    </g>
    <g id="Externo">
      <path class="cls-1" d="m601.89,176.2c-1.01,27.86-20.6,51.57-47.77,57.8-40,9-76.73-23-74.06-64.48,1.96-28.24,23.23-51.36,51.21-55.65,1.28-.28,2.53-.67,3.74-1.16h12c2.69.7,5.37,1.49,8.08,2.08,25.69,5.54,47.8,30.46,46.8,61.41Z"/>
      <path class="cls-1" d="m260,540.33c0,33.44-27.42,60.49-61.22,60.49-33.76-.03-61.1-27.41-61.07-61.17.03-33.76,27.41-61.1,61.17-61.07h0c33.82.07,61.19,27.54,61.12,61.36,0,.13,0,.26,0,.39Z"/>
      <path class="cls-1" d="m942.22,540.28c-.32,33.75-27.94,60.86-61.7,60.54-33.75-.32-60.86-27.94-60.54-61.7.32-33.55,27.62-60.57,61.16-60.54,34.03-.01,61.1,27.34,61.07,61.7Z"/>
      <path class="cls-1" d="m359,782.17c.1,33.76-27.17,61.2-60.93,61.31-33.76.1-61.2-27.17-61.31-60.93-.1-33.76,27.17-61.2,60.93-61.31.08,0,.15,0,.23,0,34.08-.01,61.08,26.87,61.08,60.93Z"/>
      <path class="cls-1" d="m842.29,299.32c0,33.77-27.35,60.78-61.44,60.78s-60.8-27-60.79-61.22c-.03-33.66,27.22-60.97,60.88-61,.11,0,.21,0,.32,0,33.57.02,61.08,27.72,61.03,61.44Z"/>
      <path class="cls-1" d="m842.29,782.3c.39,33.75-26.65,61.44-60.4,61.83-33.75.39-61.44-26.65-61.83-60.4,0-.52,0-1.04,0-1.56,0-34.08,26.92-60.94,61.07-60.93,33.65-.13,61.03,27.05,61.16,60.7,0,.12,0,.24,0,.36Z"/>
      <path class="cls-1" d="m601.89,906.67c-.65,33.91-27.36,60.72-61.66,60.66-33.44-.05-60.3-27.43-60.28-61.44s27-60.78,61.31-60.81c34.57-.03,61.25,29.31,60.63,61.59Z"/>
      <path class="cls-1" d="m359,299.17c0,34.05-26.95,60.93-61.08,60.93-33.76.02-61.14-27.32-61.16-61.08-.02-33.76,27.32-61.14,61.08-61.16,33.76-.02,61.14,27.32,61.16,61.08,0,.08,0,.15,0,.23Z"/>
    </g>
  </g>
</svg>