<?xml version="1.0" encoding="UTF-8"?>
<svg id="Html" xmlns="http://www.w3.org/2000/svg" viewBox="0 0 1080 1080">
  <defs>
    <style>
      .cls-1 {
        fill: #e34f26;
      }

      .cls-2 {
        fill: #ef652a;
      }
    </style>
  </defs>
  <path id="Interno" class="cls-1" d="m69.47,2.95l78.8,963.01,395.28,111.09,383.66-111.09L1010.53,4.88,69.47,2.95Zm755.05,313.9h-455.35l12.27,123.36h432.09l-32.94,365.57-237.04,65.67-7.75,2.15-242.85-67.82-16.15-187.31h118.21l7.1,91.72,133.7,38.75,7.74-2.09,124.02-33.43,16.14-153.72h-411.43l-32.94-360.41h596.15l-10.97,117.56Z"/>
  <polygon id="Meio" class="cls-2" points="683.71 559.7 667.57 713.42 543.55 746.85 543.55 559.7 683.71 559.7"/>
  <polygon id="Externo" class="cls-2" points="931.08 95.95 861.98 891.68 543.55 984.05 543.55 871.45 780.59 805.78 813.53 440.21 543.55 440.21 543.55 316.85 824.52 316.85 835.49 199.29 543.55 199.29 543.55 94.66 931.08 95.95"/>
</svg>